<svg width="14" height="14" viewBox="0 0 14 14" fill="none" xmlns="http://www.w3.org/2000/svg">
<path fill-rule="evenodd" clip-rule="evenodd" d="M13.4167 2.33325C13.4167 1.36675 12.6332 0.583252 11.6667 0.583252H4.66668C3.70018 0.583252 2.91668 1.36675 2.91668 2.33325V2.91659H2.33334C1.36685 2.91659 0.583344 3.70009 0.583344 4.66658V11.6666C0.583344 12.6331 1.36685 13.4166 2.33334 13.4166H9.33334C10.2998 13.4166 11.0833 12.6331 11.0833 11.6666V11.0833H11.6667C12.6332 11.0833 13.4167 10.2998 13.4167 9.33325V2.33325ZM11.0833 9.91658H11.6667C11.9888 9.91658 12.25 9.65542 12.25 9.33325V2.33325C12.25 2.01109 11.9888 1.74992 11.6667 1.74992H4.66668C4.34451 1.74992 4.08334 2.01109 4.08334 2.33325V2.91659H9.33334C10.2998 2.91659 11.0833 3.70009 11.0833 4.66658V9.91658ZM9.33334 4.08325C9.65551 4.08325 9.91668 4.34442 9.91668 4.66658V11.6666C9.91668 11.9888 9.65551 12.2499 9.33334 12.2499H2.33334C2.01118 12.2499 1.75001 11.9888 1.75001 11.6666V4.66658C1.75001 4.34442 2.01118 4.08325 2.33334 4.08325H9.33334Z" fill="#0F0F0F"/>
</svg>
