<svg width="30" height="30" viewBox="0 0 30 30" fill="none" xmlns="http://www.w3.org/2000/svg">
<g clip-path="url(#clip0_8_2060)" filter="url(#filter0_d_8_2060)">
<path d="M21.9063 4.77074H12.4271C11.9331 4.71333 11.4325 4.76841 10.9628 4.93186C10.493 5.09531 10.0664 5.36288 9.71468 5.71456C9.363 6.06624 9.09543 6.49291 8.93198 6.96263C8.76854 7.43235 8.71345 7.93296 8.77086 8.42699V17.9062C8.71345 18.4002 8.76854 18.9008 8.93198 19.3705C9.09543 19.8402 9.363 20.2669 9.71468 20.6186C10.0664 20.9703 10.493 21.2378 10.9628 21.4013C11.4325 21.5647 11.9331 21.6198 12.4271 21.5624H21.9063C22.4003 21.6198 22.9009 21.5647 23.3706 21.4013C23.8404 21.2378 24.267 20.9703 24.6187 20.6186C24.9704 20.2669 25.238 19.8402 25.4014 19.3705C25.5648 18.9008 25.6199 18.4002 25.5625 17.9062V8.42699C25.6199 7.93296 25.5648 7.43235 25.4014 6.96263C25.238 6.49291 24.9704 6.06624 24.6187 5.71456C24.267 5.36288 23.8404 5.09531 23.3706 4.93186C22.9009 4.76841 22.4003 4.71333 21.9063 4.77074ZM23.9375 17.9062C23.9375 19.3492 23.3493 19.9374 21.9063 19.9374H12.4271C10.9841 19.9374 10.3959 19.3492 10.3959 17.9062V8.42699C10.3959 6.98399 10.9841 6.39574 12.4271 6.39574H21.9063C23.3493 6.39574 23.9375 6.98399 23.9375 8.42699V17.9062ZM6.06252 4.08824V13.5782C6.06252 14.8782 6.58577 15.1957 6.75802 15.3007C6.93359 15.4172 7.05713 15.5972 7.10265 15.8029C7.14816 16.0086 7.11211 16.224 7.00206 16.4037C6.89202 16.5833 6.71658 16.7133 6.51265 16.7662C6.30872 16.8191 6.09221 16.7909 5.90869 16.6874C5.40647 16.3494 5.00472 15.8822 4.7458 15.335C4.48689 14.7878 4.38038 14.1809 4.43752 13.5782V4.08824C4.38615 3.59618 4.44527 3.09886 4.61058 2.63256C4.77589 2.16626 5.04321 1.74274 5.39304 1.39291C5.74286 1.04308 6.16638 0.775764 6.63268 0.610458C7.09898 0.445151 7.5963 0.386028 8.08836 0.437402H17.5784C18.1811 0.379554 18.7883 0.48574 19.3356 0.744719C19.8829 1.0037 20.35 1.40584 20.6875 1.90857C20.7433 1.99955 20.7806 2.10062 20.7973 2.20601C20.814 2.31141 20.8098 2.41906 20.7849 2.52283C20.76 2.62659 20.7149 2.72444 20.6522 2.81078C20.5895 2.89712 20.5104 2.97026 20.4194 3.02603C20.3284 3.0818 20.2273 3.1191 20.122 3.1358C20.0166 3.15251 19.9089 3.1483 19.8051 3.1234C19.7014 3.0985 19.6035 3.05341 19.5172 2.9907C19.4309 2.92798 19.3577 2.84888 19.3019 2.7579C19.1936 2.58565 18.8762 2.0624 17.5784 2.0624H8.08836C6.64969 2.0624 6.06252 2.64957 6.06252 4.08824Z" fill="black"/>
</g>
<defs>
<filter id="filter0_d_8_2060" x="0" y="0" width="30" height="30" filterUnits="userSpaceOnUse" color-interpolation-filters="sRGB">
<feFlood flood-opacity="0" result="BackgroundImageFix"/>
<feColorMatrix in="SourceAlpha" type="matrix" values="0 0 0 0 0 0 0 0 0 0 0 0 0 0 0 0 0 0 127 0" result="hardAlpha"/>
<feOffset dy="4"/>
<feGaussianBlur stdDeviation="2"/>
<feComposite in2="hardAlpha" operator="out"/>
<feColorMatrix type="matrix" values="0 0 0 0 0 0 0 0 0 0 0 0 0 0 0 0 0 0 0.25 0"/>
<feBlend mode="normal" in2="BackgroundImageFix" result="effect1_dropShadow_8_2060"/>
<feBlend mode="normal" in="SourceGraphic" in2="effect1_dropShadow_8_2060" result="shape"/>
</filter>
<clipPath id="clip0_8_2060">
<rect width="22" height="22" fill="white" transform="translate(4)"/>
</clipPath>
</defs>
</svg>
