<svg width="20" height="20" viewBox="0 0 20 20" fill="none" xmlns="http://www.w3.org/2000/svg">
<path fill-rule="evenodd" clip-rule="evenodd" d="M6.67188 0.555518C6.67191 0.40839 6.73035 0.267293 6.83436 0.163232C6.93837 0.0591711 7.07944 0.000660176 7.22657 0.000556641L12.7731 0.000244141C12.9203 0.000585311 13.0613 0.0592582 13.1653 0.163403C13.2692 0.267547 13.3277 0.408667 13.3278 0.55583V1.92759H6.67188V0.555518ZM15.7914 19.2056C15.7773 19.4219 15.681 19.6246 15.5223 19.7723C15.3636 19.9199 15.1545 20.0013 14.9377 19.9998H4.99821C4.78151 19.9992 4.57306 19.9166 4.41471 19.7687C4.25636 19.6208 4.15984 19.4184 4.14453 19.2023L3.29399 6.76017H16.6992L15.7916 19.2055L15.7914 19.2056ZM18.0011 5.63329H1.99887V4.34423C1.99911 4.00234 2.13501 3.67453 2.37673 3.43275C2.61846 3.19098 2.94624 3.05501 3.28813 3.0547L16.7117 3.05427C17.0536 3.0548 17.3813 3.19088 17.6229 3.43268C17.8646 3.67448 18.0005 4.00226 18.0008 4.34411V5.63317L18.0011 5.63329ZM7.4234 17.0337C7.4234 17.1077 7.43797 17.181 7.46629 17.2493C7.4946 17.3177 7.53609 17.3798 7.58841 17.4321C7.64072 17.4844 7.70282 17.5259 7.77117 17.5542C7.83952 17.5825 7.91278 17.5971 7.98676 17.5971C8.06074 17.5971 8.134 17.5825 8.20235 17.5542C8.2707 17.5259 8.3328 17.4844 8.38512 17.4321C8.43743 17.3798 8.47893 17.3177 8.50724 17.2493C8.53555 17.181 8.55012 17.1077 8.55012 17.0337V9.13345C8.54894 8.98487 8.4891 8.84278 8.38364 8.73812C8.27817 8.63346 8.13563 8.57471 7.98705 8.57466C7.83847 8.57461 7.69589 8.63326 7.59036 8.73785C7.48482 8.84243 7.42489 8.98448 7.4236 9.13306V17.0337H7.4234ZM11.4429 17.0337C11.4429 17.1832 11.5023 17.3265 11.608 17.4321C11.7136 17.5378 11.8569 17.5972 12.0064 17.5972C12.1558 17.5972 12.2991 17.5378 12.4048 17.4321C12.5104 17.3265 12.5698 17.1832 12.5698 17.0337V9.13345C12.5686 8.98485 12.5088 8.84274 12.4033 8.73807C12.2978 8.63339 12.1553 8.57463 12.0067 8.57458C11.8581 8.57453 11.7155 8.63319 11.6099 8.73779C11.5044 8.84239 11.4444 8.98446 11.4431 9.13306L11.4429 17.0337Z" fill="#FC0005"/>
</svg>
