<svg width="35" height="35" viewBox="0 0 35 35" fill="none" xmlns="http://www.w3.org/2000/svg">
<path d="M22.225 32.4771H22.0354C15.5604 32.4771 12.4396 29.925 11.9 24.2084C11.8416 23.6105 12.2791 23.0709 12.8916 23.0125C13.4896 22.9542 14.0291 23.4063 14.0875 24.0042C14.5104 28.5834 16.6687 30.2896 22.05 30.2896H22.2396C28.175 30.2896 30.275 28.1896 30.275 22.2542V12.7459C30.275 6.81045 28.175 4.71045 22.2396 4.71045H22.05C16.6396 4.71045 14.4812 6.44587 14.0875 11.1125C14.0146 11.7104 13.5187 12.1625 12.8916 12.1042C12.2791 12.0604 11.8416 11.5209 11.8854 10.9229C12.3812 5.11878 15.5166 2.52295 22.0354 2.52295H22.225C29.3854 2.52295 32.4479 5.58545 32.4479 12.7459V22.2542C32.4479 29.4146 29.3854 32.4771 22.225 32.4771Z" fill="black"/>
<path d="M21.7 18.5938H2.91669C2.31877 18.5938 1.82294 18.0979 1.82294 17.5C1.82294 16.9021 2.31877 16.4062 2.91669 16.4062H21.7C22.2979 16.4062 22.7938 16.9021 22.7938 17.5C22.7938 18.0979 22.3125 18.5938 21.7 18.5938Z" fill="black"/>
<path d="M18.4478 23.4791C18.1707 23.4791 17.8937 23.377 17.6749 23.1583C17.252 22.7354 17.252 22.0354 17.6749 21.6124L21.7874 17.4999L17.6749 13.3874C17.252 12.9645 17.252 12.2645 17.6749 11.8416C18.0978 11.4187 18.7978 11.4187 19.2207 11.8416L24.1062 16.727C24.5291 17.1499 24.5291 17.8499 24.1062 18.2729L19.2207 23.1583C19.002 23.377 18.7249 23.4791 18.4478 23.4791Z" fill="black"/>
</svg>
