<svg width="28" height="28" viewBox="0 0 28 28" fill="none" xmlns="http://www.w3.org/2000/svg">
<g clip-path="url(#clip0_8_1984)">
<path d="M14 28C6.26801 28 0 21.732 0 14C0 6.26801 6.26801 0 14 0C21.732 0 28 6.26801 28 14C28 21.732 21.732 28 14 28ZM14 1.75C7.2345 1.75 1.75 7.2345 1.75 14C1.75 20.7655 7.2345 26.25 14 26.25C20.7655 26.25 26.25 20.7655 26.25 14C26.25 7.2345 20.7655 1.75 14 1.75Z" fill="#D7D7D7"/>
<path d="M14 12.25C14.9665 12.25 15.75 13.0335 15.75 14C15.75 14.9665 14.9665 15.75 14 15.75C13.0335 15.75 12.25 14.9665 12.25 14C12.25 13.0335 13.0335 12.25 14 12.25Z" fill="black"/>
<path d="M20.125 12.25C21.0915 12.25 21.875 13.0335 21.875 14C21.875 14.9665 21.0915 15.75 20.125 15.75C19.1585 15.75 18.375 14.9665 18.375 14C18.375 13.0335 19.1585 12.25 20.125 12.25Z" fill="black"/>
<path d="M7.875 12.25C8.8415 12.25 9.625 13.0335 9.625 14C9.625 14.9665 8.8415 15.75 7.875 15.75C6.9085 15.75 6.125 14.9665 6.125 14C6.125 13.0335 6.9085 12.25 7.875 12.25Z" fill="black"/>
</g>
<defs>
<clipPath id="clip0_8_1984">
<rect width="28" height="28" fill="white" transform="matrix(1 0 0 -1 0 28)"/>
</clipPath>
</defs>
</svg>
