<svg width="24" height="24" viewBox="0 0 24 24" fill="none" xmlns="http://www.w3.org/2000/svg">
<path fill-rule="evenodd" clip-rule="evenodd" d="M2.21844 11.8138C2.21844 17.3203 6.68798 21.7843 12.2014 21.7843C15.8494 21.7843 19.0437 19.8289 20.7854 16.9082C17.006 18.1255 12.5288 17.4896 9.52353 14.488C6.49446 11.4627 5.91103 6.9976 7.17665 3.24068C4.22605 4.99809 2.21844 8.22196 2.21844 11.8138ZM21.9514 13.9781C22.8671 13.4429 24.2453 14.0486 23.9625 15.0698C22.5364 20.2192 17.811 24 12.2014 24C5.46276 24 0 18.544 0 11.8138C0 6.2272 3.92475 1.42993 9.11584 0.0357541C10.1408 -0.239527 10.7234 1.13672 10.1682 2.04024C8.10089 5.40499 8.24695 10.0796 11.0922 12.9213C13.904 15.7296 18.5677 15.9557 21.9514 13.9781Z" fill="#0F0F0F"/>
</svg>
