<svg width="25" height="31" viewBox="0 0 25 31" fill="none" xmlns="http://www.w3.org/2000/svg">
<path d="M12.7654 27.0796C9.50462 27.0796 6.24388 26.5618 3.15107 25.5262C1.97552 25.1204 1.07986 24.2947 0.688014 23.2171C0.28217 22.1395 0.422116 20.95 1.06587 19.8864L2.67525 17.2134C3.01112 16.6536 3.319 15.5341 3.319 14.8763V10.8319C3.319 5.62587 7.55937 1.3855 12.7654 1.3855C17.9714 1.3855 22.2117 5.62587 22.2117 10.8319V14.8763C22.2117 15.5201 22.5196 16.6536 22.8555 17.2274L24.4509 19.8864C25.0526 20.894 25.1646 22.1115 24.7588 23.2171C24.3529 24.3227 23.4712 25.1623 22.3657 25.5262C19.2869 26.5618 16.0261 27.0796 12.7654 27.0796ZM12.7654 3.48469C8.72092 3.48469 5.41819 6.77342 5.41819 10.8319V14.8763C5.41819 15.8979 4.99836 17.4093 4.48055 18.291L2.87117 20.964C2.56329 21.4818 2.47932 22.0276 2.66125 22.4894C2.82919 22.9652 3.24903 23.3291 3.82281 23.525C9.67256 25.4842 15.8722 25.4842 21.7219 23.525C22.2257 23.357 22.6176 22.9792 22.7995 22.4754C22.9814 21.9716 22.9395 21.4258 22.6596 20.964L21.0502 18.291C20.5184 17.3813 20.1125 15.8839 20.1125 14.8623V10.8319C20.1125 6.77342 16.8238 3.48469 12.7654 3.48469Z" fill="#262626"/>
<path d="M15.3699 3.86251C15.2719 3.86251 15.174 3.84852 15.076 3.82053C14.6702 3.70857 14.2783 3.62461 13.9005 3.56863C12.7109 3.41469 11.5634 3.49865 10.4858 3.82053C10.0939 3.94648 9.6741 3.82053 9.4082 3.52664C9.14231 3.23276 9.05834 2.81292 9.21228 2.43506C9.78606 0.965629 11.1855 0 12.7809 0C14.3763 0 15.7758 0.951634 16.3495 2.43506C16.4895 2.81292 16.4195 3.23276 16.1536 3.52664C15.9437 3.75056 15.6498 3.86251 15.3699 3.86251Z" fill="#262626"/>
<path d="M12.7662 30.2703C11.3808 30.2703 10.0373 29.7105 9.05766 28.7309C8.07803 27.7513 7.51825 26.4078 7.51825 25.0223H9.61744C9.61744 25.848 9.95331 26.6597 10.5411 27.2475C11.1289 27.8353 11.9405 28.1711 12.7662 28.1711C14.5016 28.1711 15.915 26.7577 15.915 25.0223H18.0142C18.0142 27.9192 15.6631 30.2703 12.7662 30.2703Z" fill="#262626"/>
</svg>
